<svg xmlns="http://www.w3.org/2000/svg" version="1.1" xmlns:xlink="http://www.w3.org/1999/xlink" width="256" height="256"><svg xmlns="http://www.w3.org/2000/svg" version="1.1" xmlns:xlink="http://www.w3.org/1999/xlink" width="256" height="256"><svg width="256" height="256" viewBox="0 0 256 256" fill="none" xmlns="http://www.w3.org/2000/svg">
<rect width="256" height="256" rx="72" fill="#29A37C"></rect>
<g clip-path="url(#clip0_56_101)">
<path d="M128.076 210.955C133.891 210.955 138.604 206.124 138.604 200.165C138.604 194.206 133.891 189.376 128.076 189.376C122.262 189.376 117.549 194.206 117.549 200.165C117.549 206.124 122.262 210.955 128.076 210.955Z" fill="white"></path>
<path d="M128.076 184.984C135.344 184.984 141.236 178.945 141.236 171.497C141.236 164.048 135.344 158.009 128.076 158.009C120.809 158.009 114.917 164.048 114.917 171.497C114.917 178.945 120.809 184.984 128.076 184.984Z" fill="white"></path>
<path d="M128.076 153.617C136.798 153.617 143.868 146.371 143.868 137.433C143.868 128.494 136.798 121.248 128.076 121.248C119.355 121.248 112.285 128.494 112.285 137.433C112.285 146.371 119.355 153.617 128.076 153.617Z" fill="white"></path>
<path d="M128.076 84.764C138.251 84.764 146.5 76.3102 146.5 65.882C146.5 55.4537 138.251 47 128.076 47C117.902 47 109.653 55.4537 109.653 65.882C109.653 76.3102 117.902 84.764 128.076 84.764Z" fill="white"></path>
<path d="M132.935 98.7698C133.543 90.1588 140.46 85.421 148.76 83.4498C161.414 80.4412 211.555 84.6602 214.052 97.3174C216.717 110.874 175.417 141.687 150.65 128.234C142.788 123.946 132.092 112.776 132.935 98.9773C132.902 98.9081 132.935 98.839 132.935 98.7698Z" fill="white"></path>
<path d="M123.251 98.7698C122.644 90.1588 115.727 85.421 107.426 83.4498C94.7728 80.4412 44.6319 84.6602 42.135 97.3174C39.4693 110.874 80.7698 141.687 105.537 128.234C113.399 123.946 124.095 112.776 123.251 98.9773C123.251 98.9081 123.251 98.839 123.251 98.7698Z" fill="white"></path>
</g>
<defs>
<clipPath id="clip0_56_101">
<rect width="172.153" height="163.955" fill="white" transform="translate(42 47)"></rect>
</clipPath>
</defs>
</svg></svg><style>@media (prefers-color-scheme: light) { :root { filter: none; } }
@media (prefers-color-scheme: dark) { :root { filter: none; } }
</style></svg>