<?xml version="1.0" encoding="UTF-8"?><svg xmlns="http://www.w3.org/2000/svg" width="377.854" height="100.507" viewbox="0 0 377.854 100.507"><path fill="#293F9C" d="M101.794 35.788c-5.513 0-7.833-5.122-7.856-5.175l-.144-.325 2.337-1.391.172.443c.062.16 1.548 3.883 5.49 3.883 2.954 0 5.016-1.764 5.016-4.29 0-2.6-2.064-3.701-5.21-5.083-3.496-1.527-6.73-3.485-6.73-7.442 0-3.106 2.5-6.406 7.131-6.406 4.482 0 6.798 3.52 6.894 3.67l.2.31-2.023 1.567-.236-.378c-.017-.026-1.66-2.605-4.8-2.605-2.69 0-4.567 1.58-4.567 3.842 0 2.62 2.35 3.85 5.937 5.429 2.968 1.303 6.002 3.165 6.002 7.096 0 3.972-3.202 6.855-7.613 6.855M118.016 35.788c-3.015 0-4.888-1.94-4.888-5.06v-9.432h-3.415v-2.46h3.415v-5.074h2.6v5.073h5.347v2.461h-5.348v9.086c0 2.547 1.346 2.841 2.358 2.841 1.11 0 2.116-.651 2.126-.658l.396-.26 1.025 2.308-.3.183c-.066.041-1.634.992-3.316.992M101.794 69.189c-5.513 0-7.833-5.122-7.856-5.174l-.144-.326 2.337-1.39.172.443c.062.159 1.548 3.882 5.49 3.882 2.954 0 5.016-1.763 5.016-4.289 0-2.601-2.064-3.7-5.21-5.084-3.496-1.526-6.73-3.484-6.73-7.442 0-3.105 2.5-6.406 7.131-6.406 4.482 0 6.798 3.52 6.894 3.67l.2.31-2.023 1.567-.236-.378c-.017-.026-1.66-2.604-4.8-2.604-2.69 0-4.567 1.579-4.567 3.841 0 2.621 2.35 3.85 5.937 5.429 2.968 1.303 6.002 3.166 6.002 7.097 0 3.971-3.202 6.854-7.613 6.854M118.016 69.189c-3.015 0-4.888-1.94-4.888-5.06v-9.432h-3.415v-2.461h3.415v-5.072h2.6v5.072h5.347v2.46h-5.348v9.088c0 2.547 1.346 2.84 2.358 2.84 1.11 0 2.116-.65 2.126-.657l.396-.26 1.025 2.308-.3.183c-.066.04-1.634.99-3.316.99M136.299 35.788c-4.214 0-6.427-3.527-6.519-3.677l-.183-.298 2.025-1.67.233.426c.06.11 1.488 2.654 4.444 2.654 3.81 0 4.22-3.362 4.22-4.807v-18h2.6v18c0 4.547-2.614 7.372-6.82 7.372M154.492 20.985c-3.965 0-5.74 3.073-5.74 6.119s1.775 6.12 5.74 6.12c3.964 0 5.739-3.074 5.739-6.12 0-3.046-1.775-6.119-5.739-6.119zm0 14.803c-4.793 0-8.408-3.733-8.408-8.684 0-4.95 3.615-8.683 8.408-8.683 4.792 0 8.407 3.733 8.407 8.683 0 4.95-3.615 8.684-8.407 8.684M179.367 35.374h-2.599V25.207c0-2.723-1.437-4.222-4.048-4.222-2.947 0-4.256 2.72-4.464 3.198v11.191h-2.599V8.484h2.599V20.57c.83-.938 2.37-2.15 4.808-2.15 3.137 0 6.303 2.013 6.303 6.51v10.444M196.597 35.374h-2.598V25.207c0-2.723-1.437-4.222-4.049-4.222-2.946 0-4.255 2.72-4.462 3.198v11.191h-2.599v-16.54h2.426v1.932c.844-1.023 2.428-2.345 4.981-2.345 3.137 0 6.3 2.013 6.3 6.51v10.443M216.448 12.566c-2.226 0-3.843 1.34-3.843 3.186 0 1.808 1.664 3.194 3.134 4.417.25.21.496.413.724.613 2.624-2.09 3.827-3.108 3.827-5.03 0-1.846-1.617-3.186-3.842-3.186zm-.295 11.37c-.318.25-.632.49-.94.727-2.305 1.768-4.126 3.164-4.126 4.684 0 3.597 4.103 3.876 5.361 3.876 2.733 0 5.188-1.55 6.526-3.172l-6.82-6.114zm.295 11.852c-5.271 0-8.03-3.067-8.03-6.096 0-2.838 1.847-4.299 5.885-7.408-2.618-2.358-4.33-3.981-4.33-6.532 0-2.788 2.27-5.75 6.475-5.75s6.475 2.962 6.475 5.75c0 2.489-1.283 3.862-4.652 6.67l6.048 5.404c.291-.754.801-2.575.801-6.105v-.402h2.565v.402c0 4.463-1.021 7.016-1.42 7.844l4.475 3.986-1.657 1.961-4.234-3.786c-1.729 2.072-5.05 4.062-8.4 4.062M146.708 68.804h-14.4V43.845H146.5v2.461h-11.594v8.477h10.765v2.46h-10.765v9.1h11.801v2.461M152.023 68.804h-2.6l.07-26.89h2.53v26.89M157.35 49.343c-.985 0-1.783-.8-1.783-1.783 0-.983.798-1.783 1.782-1.783.983 0 1.783.8 1.783 1.783 0 .983-.8 1.783-1.783 1.783zm1.298 19.461h-2.599V52.265h2.599v16.54M174.847 68.804h-14.38l10.386-14.078h-9.268v-2.46h14.035l-10.385 14.077h9.612v2.461M196.628 63.612c.26.49 1.787 3.042 5.256 3.042 3.226 0 5.568-2.574 5.568-6.12s-2.341-6.118-5.568-6.118c-3.443 0-4.998 2.568-5.256 3.04v6.156zm5.256 5.606c-2.799 0-4.533-1.316-5.43-2.282v1.868h-2.425v-26.89h2.563v12.101c.948-.987 2.638-2.164 5.292-2.164 4.695 0 8.234 3.732 8.234 8.683s-3.539 8.684-8.234 8.684M214.315 59.2h10.78c-.263-1.752-1.762-4.784-5.319-4.784-3.692 0-5.197 2.99-5.46 4.784zm5.77 10.018c-4.752 0-8.476-3.814-8.476-8.684 0-4.95 3.511-8.683 8.167-8.683 4.501 0 8.028 3.814 8.028 8.683 0 .327 0 .362-.036.76l-.033.367h-13.483c.31 2.09 2.046 4.993 5.833 4.993 2.83 0 4.596-1.943 5.068-2.541l.286-.356 1.779 1.829-.23.277c-1.72 2.07-4.362 3.355-6.903 3.355M236.269 69.218c-3.017 0-4.891-1.94-4.891-5.06v-9.432h-3.414v-2.46h3.414v-5.074h2.6v5.073h5.35v2.461h-5.35v9.086c0 2.547 1.346 2.842 2.358 2.842 1.11 0 2.116-.653 2.126-.66l.396-.258 1.025 2.306-.299.184c-.067.041-1.636.992-3.315.992M255.635 68.804h-2.6V58.636c0-2.723-1.438-4.22-4.048-4.22-2.924 0-4.26 2.738-4.463 3.199v11.19h-2.6V41.912h2.6V54c.829-.937 2.37-2.148 4.807-2.148 3.139 0 6.304 2.012 6.304 6.51v10.443M284.441 68.804h-2.598v-11.56h-13.1v11.56h-2.6V43.845h2.6v10.938h13.1V43.845h2.598v24.96M295.974 54.415c-3.966 0-5.74 3.073-5.74 6.119s1.774 6.12 5.74 6.12c3.964 0 5.738-3.075 5.738-6.12s-1.774-6.119-5.738-6.119zm0 14.803c-4.793 0-8.409-3.734-8.409-8.684s3.616-8.683 8.409-8.683c4.79 0 8.406 3.732 8.406 8.683s-3.615 8.684-8.406 8.684M312.475 69.218c-4.828 0-6.98-3.394-7.07-3.538l-.181-.294 2.045-1.746.242.422c.06.104 1.531 2.592 4.964 2.592 1.376 0 3.704-.498 3.704-2.359 0-1.352-1.313-1.886-4.069-2.507-2.53-.556-5.904-1.691-5.904-5.084 0-2.385 2.229-4.853 5.958-4.853 3.831 0 5.844 2.25 5.927 2.346l.234.267-1.703 1.905-.303-.323c-.012-.016-1.546-1.63-4.155-1.63-1.958 0-3.324.94-3.324 2.289 0 1.586 1.747 2.088 4.412 2.677 2.769.62 5.597 1.686 5.597 4.913 0 3.232-3.207 4.923-6.374 4.923M323.899 63.304c.264.518 1.864 3.35 5.256 3.35 3.227 0 5.568-2.575 5.568-6.12s-2.341-6.119-5.568-6.119c-3.363 0-4.996 2.85-5.256 3.35v5.54zm0 13.436h-2.6V52.265h2.427v2.066c.913-1.04 2.68-2.48 5.464-2.48 4.751 0 8.2 3.651 8.2 8.683s-3.449 8.684-8.2 8.684c-1.482 0-3.521-.428-5.292-2.318v9.84M341.335 49.343c-.982 0-1.783-.8-1.783-1.783 0-.983.8-1.783 1.783-1.783s1.782.8 1.782 1.783c0 .983-.8 1.783-1.782 1.783zm1.3 19.461h-2.6V52.265h2.6v16.54M352.99 69.218c-3.016 0-4.89-1.94-4.89-5.06v-9.432h-3.414v-2.46h3.415v-5.074h2.597v5.073h5.35v2.461h-5.35v9.086c0 2.547 1.348 2.842 2.36 2.842 1.109 0 2.115-.653 2.127-.66l.395-.258 1.024 2.306-.298.184c-.067.041-1.637.992-3.317.992M364.285 60.315c-1.697 0-4.222.849-4.222 3.186 0 2.489 2.437 3.153 3.877 3.153 2.862 0 4.615-2.397 4.947-2.892v-2.315c-.515-.299-2.163-1.132-4.602-1.132zm-.759 8.903c-3.013 0-6.13-2.138-6.13-5.717 0-3.712 3.425-5.716 6.648-5.716 2.275 0 3.978.71 4.843 1.174v-.461c0-3.553-2.646-4.082-4.223-4.082-2.704 0-4.904 1.37-4.924 1.384l-.374.237-1.162-2.27.309-.197c.109-.07 2.727-1.719 6.118-1.719 5.054 0 6.854 3.219 6.854 6.234v10.72h-2.426v-2.02c-.952.986-2.814 2.433-5.533 2.433M183.086 60.315c-1.695 0-4.22.849-4.22 3.186 0 2.489 2.437 3.153 3.877 3.153 2.86 0 4.614-2.397 4.946-2.892v-2.315c-.514-.299-2.162-1.132-4.603-1.132zm-.758 8.903c-3.014 0-6.13-2.138-6.13-5.717 0-3.712 3.426-5.716 6.649-5.716 2.274 0 3.976.71 4.843 1.174v-.461c0-3.553-2.647-4.082-4.223-4.082-2.706 0-4.904 1.37-4.925 1.384l-.373.237-1.162-2.27.308-.197c.109-.07 2.727-1.719 6.117-1.719 5.055 0 6.856 3.219 6.856 6.234v10.72h-2.427v-2.02c-.952.986-2.814 2.433-5.533 2.433M377.85 68.804h-2.599l.07-26.89h2.53v26.89"/><path fill="#0F8CD2" d="M97.733 90.156c1.64 0 2.76-.725 2.76-2.262 0-1.535-1.12-2.26-2.76-2.26h-1.587v4.522h1.587zm-3.036-5.902h3.122c2.52 0 4.124 1.33 4.124 3.64 0 2.313-1.605 3.64-4.124 3.64h-1.673v4.798h-1.45V84.254M103.27 93.484V88.36h1.449v4.883c0 1.362.845 1.949 1.915 1.949 1.345 0 1.984-1.31 1.984-1.31V88.36h1.45v7.97h-1.347v-1.224s-.724 1.431-2.45 1.431c-1.586 0-3.001-1.085-3.001-3.054M111.342 88.36h1.553v-2.43h1.449v2.43h2.484v1.311h-2.484v4.297c0 .776.38 1.225 1.156 1.225.448 0 .914-.328.914-.328l.535 1.191c-.69.38-1.19.483-1.656.483-1.14 0-2.398-.742-2.398-2.502V89.67h-1.553v-1.31M117.828 88.36h1.552v-2.43h1.45v2.43h2.484v1.311h-2.484v4.297c0 .776.379 1.225 1.156 1.225.448 0 .914-.328.914-.328l.535 1.191c-.69.38-1.19.483-1.656.483-1.14 0-2.399-.742-2.399-2.502V89.67h-1.552v-1.31M124.865 88.36h1.449v7.971h-1.45v-7.97zm.725-3.536c.535 0 .983.449.983.984s-.448.983-.983.983c-.535 0-.983-.448-.983-.983s.448-.984.983-.984M135.32 91.207v5.125h-1.45v-4.883c0-1.364-.845-1.95-1.914-1.95-1.294 0-1.985 1.346-1.985 1.346v5.487h-1.448V88.36h1.345v1.121s.725-1.328 2.45-1.328c1.587 0 3.002 1.088 3.002 3.053M143.307 90.845s-.778-1.346-2.347-1.346c-1.623 0-2.64 1.277-2.64 2.848 0 1.568 1.017 2.846 2.64 2.846 1.587 0 2.347-1.346 2.347-1.346v-3.002zm0 4.486c-.276.362-1.106 1.208-2.572 1.208-2.156 0-3.864-1.846-3.864-4.192 0-2.348 1.708-4.193 3.864-4.193 1.914 0 2.692 1.363 2.692 1.363v-1.156h1.328v8.006c0 2.76-1.88 4.14-4.192 4.14-2.192 0-3.486-1.52-3.486-1.52l.88-1.086s.966 1.26 2.606 1.26c1.69 0 2.744-.931 2.744-2.726v-1.104M152.292 93.83s.759 1.363 2.347 1.363c1.62 0 2.638-1.277 2.638-2.846 0-1.571-1.017-2.847-2.638-2.847-1.588 0-2.347 1.362-2.347 1.362v2.968zm-.122-5.47v1.157s.795-1.363 2.693-1.363c2.156 0 3.864 1.845 3.864 4.193 0 2.346-1.708 4.192-3.864 4.192-1.467 0-2.295-.829-2.571-1.192v4.952h-1.45V88.361h1.328M166.281 91.656c-.051-.897-.862-2.157-2.467-2.157-1.726 0-2.433 1.329-2.535 2.157h5.002zm1.415.742c0 .156 0 .275-.017.465h-6.435c.085 1.209 1.241 2.33 2.743 2.33 1.57 0 2.398-1.174 2.398-1.174l.915.95s-1.21 1.57-3.313 1.57c-2.415 0-4.158-1.829-4.158-4.192 0-2.33 1.587-4.193 3.985-4.193 2.226 0 3.882 1.674 3.882 4.244M175.544 92.347c0-1.571-1.052-2.847-2.656-2.847-1.605 0-2.657 1.276-2.657 2.847 0 1.569 1.052 2.846 2.657 2.846 1.604 0 2.656-1.278 2.656-2.846zm1.45 0c0 2.346-1.76 4.192-4.106 4.192s-4.107-1.846-4.107-4.192c0-2.347 1.76-4.193 4.107-4.193 2.345 0 4.105 1.845 4.105 4.193M180.028 93.83s.759 1.363 2.347 1.363c1.621 0 2.64-1.277 2.64-2.846 0-1.571-1.019-2.847-2.64-2.847-1.588 0-2.347 1.362-2.347 1.362v2.968zm-.12-5.47v1.157s.792-1.363 2.69-1.363c2.157 0 3.866 1.845 3.866 4.193 0 2.346-1.71 4.192-3.865 4.192-1.467 0-2.295-.829-2.571-1.192v4.952h-1.45V88.361h1.33M188.221 83.289h1.448v13.043h-1.448V83.289M197.864 91.656c-.053-.897-.863-2.157-2.467-2.157-1.725 0-2.433 1.329-2.536 2.157h5.003zm1.414.742c0 .156 0 .275-.017.465h-6.436c.088 1.209 1.242 2.33 2.744 2.33 1.57 0 2.399-1.174 2.399-1.174l.914.95s-1.207 1.57-3.313 1.57c-2.416 0-4.157-1.829-4.157-4.192 0-2.33 1.587-4.193 3.985-4.193 2.225 0 3.881 1.674 3.881 4.244M210.128 88.36h1.45v7.971h-1.45v-7.97zm0-2.38c0-.707-.414-1.553-1.502-1.553s-1.5.846-1.5 1.553v2.38h1.777v1.311h-1.777v6.66h-1.45v-6.66h-1.621v-1.31h1.622v-2.313c0-1.638 1.172-2.966 2.949-2.966s2.951 1.328 2.951 2.966v.173c0 .398-.328.726-.724.726s-.725-.328-.725-.726v-.241M218.581 88.36l-.535 1.311s-.31-.172-.915-.172c-1.261 0-1.828 1.346-1.828 1.346v5.487h-1.45V88.36h1.344v1.225s.71-1.432 2.227-1.432a3.34 3.34 0 011.157.207M219.908 93.933s.844 1.295 2.415 1.295c.812 0 1.725-.346 1.725-.984 0-.69-.586-1.036-1.81-1.276-1.709-.345-2.919-1.02-2.919-2.52 0-1.156 1.157-2.294 2.934-2.294 1.882 0 2.951 1.207 2.951 1.207l-.949.984s-.793-.88-2.002-.88c-1.018 0-1.518.5-1.518 1.019 0 .603.623.93 1.933 1.206 1.519.329 2.812.897 2.812 2.52 0 1.535-1.621 2.329-3.157 2.329-2.242 0-3.416-1.674-3.416-1.674l1.001-.932M226.411 88.36h1.553v-2.43h1.448v2.43h2.484v1.311h-2.484v4.297c0 .776.38 1.225 1.156 1.225.449 0 .914-.328.914-.328l.535 1.191c-.69.38-1.19.483-1.656.483-1.138 0-2.397-.742-2.397-2.502V89.67h-1.553v-1.31M38.2 39.066a.87.87 0 01-.804-.534L21.682 1.204A.873.873 0 0123.06.21L38.2 13.44 53.34.209a.873.873 0 011.377.995L39.002 38.532a.87.87 0 01-.803.534M24.752 4.004l13.447 31.943L51.648 4.004 38.773 15.252a.872.872 0 01-1.146 0L24.752 4.004"/><path fill="#0F8CD2" d="M22.486 76.393a.87.87 0 01-.804-1.21l15.715-37.328a.87.87 0 011.606 0l15.715 37.329a.87.87 0 01-.292 1.044.875.875 0 01-1.085-.05L38.2 62.948l-15.14 13.23a.88.88 0 01-.573.215M38.199 40.44L24.752 72.382l12.875-11.248a.871.871 0 011.146 0l12.875 11.248L38.199 40.44"/><path fill="#293F9C" d="M.873 54.78a.871.871 0 01-.657-1.446l13.23-15.14-13.23-15.14a.87.87 0 01.994-1.379l37.329 15.716a.871.871 0 010 1.607L1.21 54.712a.893.893 0 01-.337.069M4.01 24.746l11.25 12.875a.87.87 0 010 1.147L4.01 51.642l31.944-13.447L4.01 24.746"/><path fill="#293F9C" d="M75.528 54.78a.893.893 0 01-.338-.068L37.861 38.998a.871.871 0 010-1.607L75.19 21.675a.872.872 0 01.995 1.378l-13.23 15.14 13.23 15.141a.87.87 0 01.05 1.084.87.87 0 01-.707.363M40.447 38.195L72.39 51.642 61.141 38.768a.87.87 0 010-1.147l11.25-12.875-31.944 13.449"/></svg>