<svg width="1559" height="184" viewBox="0 0 1559 184" fill="none" xmlns="http://www.w3.org/2000/svg">
<g clip-path="url(#clip0_8_14)">
<path d="M1509.37 154C1498.71 154 1489.24 151.933 1480.97 147.8C1472.84 143.533 1466.44 137.467 1461.77 129.6C1457.24 121.733 1454.97 112.333 1454.97 101.4C1454.97 90.8667 1457.37 81.7333 1462.17 74C1467.11 66.2666 1473.57 60.2666 1481.57 56C1489.71 51.7333 1498.57 49.6 1508.17 49.6C1519.11 49.6 1528.44 52.2 1536.17 57.4C1544.04 62.4666 1549.97 69.5333 1553.97 78.6C1557.97 87.5333 1559.64 97.8666 1558.97 109.6H1485.57C1486.11 116.533 1488.64 121.733 1493.17 125.2C1497.84 128.667 1502.97 130.4 1508.57 130.4C1513.24 130.4 1517.24 129.733 1520.57 128.4C1524.04 126.933 1526.71 125.133 1528.57 123L1552.77 131.8C1547.57 139.4 1541.04 145 1533.17 148.6C1525.44 152.2 1517.51 154 1509.37 154ZM1485.57 91.6H1530.77C1530.64 85.2 1528.44 80.4 1524.17 77.2C1519.91 73.8666 1514.84 72.2 1508.97 72.2C1503.24 72.2 1498.11 73.7333 1493.57 76.8C1489.17 79.8666 1486.51 84.8 1485.57 91.6Z" fill="rgb(55 65 81)"/>
<path d="M1385.76 151.6V52.4H1409.76L1415.16 70.6C1418.22 62.6 1422.42 57 1427.76 53.8C1433.09 50.6 1439.56 49.2 1447.16 49.6V80C1445.56 79.7333 1444.16 79.6 1442.96 79.6C1441.76 79.4667 1440.42 79.4 1438.96 79.4C1431.62 79.4 1425.96 81.1333 1421.96 84.6C1418.09 88.0667 1416.16 93.7333 1416.16 101.6V151.6H1385.76Z" fill="rgb(55 65 81)"/>
<path d="M1306.1 154C1297.3 154 1290.36 152.4 1285.3 149.2C1280.36 145.867 1276.83 141.067 1274.7 134.8C1272.7 128.533 1271.7 120.933 1271.7 112V52.4H1302.1V107.8C1302.1 116.867 1303.43 122.933 1306.1 126C1308.9 128.933 1312.76 130.4 1317.7 130.4C1323.7 130.4 1328.03 128.4 1330.7 124.4C1333.5 120.4 1334.9 113.8 1334.9 104.6V52.4H1365.5V151.6H1339.1L1334.9 137.6C1331.96 142.533 1328.3 146.533 1323.9 149.6C1319.63 152.533 1313.7 154 1306.1 154Z" fill="rgb(55 65 81)"/>
<path d="M1237.71 151.6C1229.58 151.6 1223.11 150.933 1218.31 149.6C1213.51 148.133 1210.05 145.4 1207.91 141.4C1205.91 137.267 1204.91 131.333 1204.91 123.6V75.6H1188.51V52.4H1204.91V27.6H1235.31V52.4H1256.91V75.6H1235.31V115.6C1235.31 120.267 1236.18 123.333 1237.91 124.8C1239.78 126.133 1243.18 126.8 1248.11 126.8H1256.91V151.6H1237.71Z" fill="rgb(55 65 81)"/>
<path d="M1076.77 183.8V52.4H1103.17L1107.17 66C1110.37 60.5333 1114.84 56.4666 1120.57 53.8C1126.44 51 1132.04 49.6 1137.37 49.6C1145.91 49.6 1153.44 51.7333 1159.97 56C1166.64 60.2666 1171.84 66.3333 1175.57 74.2C1179.31 81.9333 1181.17 91.2 1181.17 102C1181.17 112.8 1179.31 122.133 1175.57 130C1171.84 137.733 1166.64 143.667 1159.97 147.8C1153.44 151.933 1145.91 154 1137.37 154C1132.04 154 1126.44 152.6 1120.57 149.8C1114.84 147 1110.37 142.867 1107.17 137.4V183.8H1076.77ZM1127.77 130.4C1133.64 130.4 1138.71 128 1142.97 123.2C1147.37 118.4 1149.57 111.333 1149.57 102C1149.57 92.9333 1147.37 85.8666 1142.97 80.8C1138.71 75.7333 1133.64 73.2 1127.77 73.2C1121.77 73.2 1116.57 75.3333 1112.17 79.6C1107.91 83.8667 1105.77 91.1333 1105.77 101.4C1105.77 111.533 1107.91 118.933 1112.17 123.6C1116.57 128.133 1121.77 130.4 1127.77 130.4Z" fill="rgb(55 65 81)"/>
<path d="M997.111 154C988.311 154 981.378 152.4 976.311 149.2C971.378 145.867 967.844 141.067 965.711 134.8C963.711 128.533 962.711 120.933 962.711 112V52.4H993.111V107.8C993.111 116.867 994.444 122.933 997.111 126C999.911 128.933 1003.78 130.4 1008.71 130.4C1014.71 130.4 1019.04 128.4 1021.71 124.4C1024.51 120.4 1025.91 113.8 1025.91 104.6V52.4H1056.51V151.6H1030.11L1025.91 137.6C1022.98 142.533 1019.31 146.533 1014.91 149.6C1010.64 152.533 1004.71 154 997.111 154Z" fill="rgb(55 65 81)"/>
<path d="M707.464 154C695.864 154 685.797 151.867 677.264 147.6C668.864 143.333 662.731 137.067 658.864 128.8L684.664 119.4C686.131 123.533 688.931 126.667 693.064 128.8C697.331 130.8 702.331 131.8 708.064 131.8C712.997 131.8 717.331 131.067 721.064 129.6C724.931 128 726.864 125.667 726.864 122.6C726.864 120.467 725.731 118.667 723.464 117.2C721.197 115.733 717.197 114.533 711.464 113.6L693.664 110.6C684.064 109 676.264 105.733 670.264 100.8C664.264 95.8666 661.264 89.2666 661.264 81C661.264 74.0666 663.331 68.2666 667.464 63.6C671.731 58.9333 677.331 55.4666 684.264 53.2C691.197 50.8 698.731 49.6 706.864 49.6C716.331 49.6 725.064 51.3333 733.064 54.8C741.197 58.1333 747.131 63.7333 750.864 71.6L725.264 81C724.331 77.4 722.131 75 718.664 73.8C715.197 72.4666 711.197 71.8 706.664 71.8C695.731 71.8 690.264 74.4666 690.264 79.8C690.264 81.8 691.197 83.4666 693.064 84.8C694.931 86 698.064 87 702.464 87.8L720.864 91.2C732.864 93.3333 741.731 96.4667 747.464 100.6C753.197 104.733 756.064 110.933 756.064 119.2C756.064 126.933 753.864 133.4 749.464 138.6C745.064 143.8 739.197 147.667 731.864 150.2C724.531 152.733 716.397 154 707.464 154Z" fill="rgb(55 65 81)"/>
<path d="M600.583 154C589.916 154 580.449 151.933 572.183 147.8C564.049 143.533 557.649 137.467 552.983 129.6C548.449 121.733 546.183 112.333 546.183 101.4C546.183 90.8667 548.583 81.7333 553.383 74C558.316 66.2666 564.783 60.2666 572.783 56C580.916 51.7333 589.783 49.6 599.383 49.6C610.316 49.6 619.649 52.2 627.383 57.4C635.249 62.4666 641.183 69.5333 645.183 78.6C649.183 87.5333 650.849 97.8666 650.183 109.6H576.783C577.316 116.533 579.849 121.733 584.383 125.2C589.049 128.667 594.183 130.4 599.783 130.4C604.45 130.4 608.45 129.733 611.783 128.4C615.25 126.933 617.916 125.133 619.783 123L643.983 131.8C638.783 139.4 632.249 145 624.383 148.6C616.649 152.2 608.716 154 600.583 154ZM576.783 91.6H621.983C621.849 85.2 619.649 80.4 615.383 77.2C611.116 73.8666 606.049 72.2 600.183 72.2C594.449 72.2 589.316 73.7333 584.783 76.8C580.383 79.8666 577.716 84.8 576.783 91.6Z" fill="rgb(55 65 81)"/>
<path d="M521.292 151.6C513.159 151.6 506.692 150.933 501.892 149.6C497.092 148.133 493.626 145.4 491.492 141.4C489.492 137.267 488.492 131.333 488.492 123.6V18H518.892V115.6C518.892 120.267 519.826 123.333 521.692 124.8C523.559 126.133 527.025 126.8 532.092 126.8H540.692V151.6H521.292Z" fill="rgb(55 65 81)"/>
<path d="M458.402 151.6C450.268 151.6 443.802 150.933 439.002 149.6C434.202 148.133 430.735 145.4 428.602 141.4C426.602 137.267 425.602 131.333 425.602 123.6V18H456.002V115.6C456.002 120.267 456.935 123.333 458.802 124.8C460.668 126.133 464.135 126.8 469.202 126.8H477.802V151.6H458.402Z" fill="rgb(55 65 81)"/>
<path d="M391.516 36C386.582 36 382.316 34.2667 378.716 30.8C375.249 27.2 373.516 22.9333 373.516 18C373.516 12.9333 375.249 8.66666 378.716 5.19999C382.316 1.73333 386.582 0 391.516 0C396.582 0 400.849 1.73333 404.316 5.19999C407.782 8.66666 409.516 12.9333 409.516 18C409.516 22.9333 407.782 27.2 404.316 30.8C400.849 34.2667 396.582 36 391.516 36ZM376.116 151.6V75.6H357.316V52.4H406.716V151.6H376.116Z" fill="rgb(55 65 81)"/>
<path d="M250.992 151.6V18H281.392V65.6C283.659 61.8667 287.392 58.2667 292.592 54.8C297.926 51.3333 304.392 49.6 311.992 49.6C324.792 49.6 333.526 53.2 338.192 60.4C342.992 67.4667 345.392 77.7333 345.392 91.2V151.6H314.992V98.8C314.992 94.1333 314.726 89.8667 314.192 86C313.659 82.1333 312.326 79.0667 310.192 76.8C308.192 74.4 304.726 73.2 299.792 73.2C293.392 73.2 288.726 75.5333 285.792 80.2C282.859 84.7333 281.392 91.5333 281.392 100.6V151.6H250.992Z" fill="rgb(55 65 81)"/>
<path d="M192.686 154C181.753 154 172.486 151.8 164.886 147.4C157.419 143 151.686 136.867 147.686 129C143.819 121 141.886 111.8 141.886 101.4C141.886 91 144.019 81.9333 148.286 74.2C152.553 66.3333 158.486 60.2666 166.086 56C173.819 51.7333 182.686 49.6 192.686 49.6C198.419 49.6 204.086 50.4 209.686 52C215.419 53.6 220.686 56.3333 225.486 60.2C230.419 63.9333 234.419 69.0666 237.486 75.6L212.086 84.8C210.486 80.5333 208.086 77.5333 204.886 75.8C201.819 74.0666 198.353 73.2 194.486 73.2C190.886 73.2 187.419 74.1333 184.086 76C180.753 77.7333 178.019 80.6666 175.886 84.8C173.886 88.9333 172.886 94.5333 172.886 101.6C172.886 108.8 173.953 114.533 176.086 118.8C178.219 122.933 180.886 125.933 184.086 127.8C187.419 129.533 190.886 130.4 194.486 130.4C198.753 130.4 202.353 129.6 205.286 128C208.219 126.267 210.553 123.933 212.286 121L237.086 130C233.753 136 229.619 140.8 224.686 144.4C219.753 147.867 214.486 150.333 208.886 151.8C203.419 153.267 198.019 154 192.686 154Z" fill="rgb(55 65 81)"/>
<path d="M0 151.6L50.6 18H85.4L136 151.6H101.6L93.6 127.8H42.4L34.4 151.6H0ZM51 102.2H85L67.8 51.4L51 102.2Z" fill="rgb(55 65 81)"/>
<path d="M885.14 18.6H834V49.859L847.631 52.5468L855.093 48.5648L865.44 51.5513V45.0805H886.135C893.564 45.0805 899.732 46.076 904.641 48.067C909.682 49.9253 912.202 53.9737 912.202 60.2123C912.202 66.318 909.682 70.3664 904.641 72.3575C899.732 74.2157 893.564 75.1449 886.135 75.1449H865.44V68.6243L856.088 66.9817L846.636 72.6063L834 73.9503V85.1V151.6H865.44V101.426H879.568L915.585 151.6H952L913.396 98.0416C921.886 95.7851 928.387 92.5995 932.897 88.4847C937.54 84.3699 940.79 79.857 942.648 74.9458C944.505 69.9019 945.433 64.858 945.433 59.814C945.433 48.7971 942.78 40.3021 937.474 34.329C932.3 28.356 925.137 24.2412 915.983 21.9847C906.962 19.7282 896.681 18.6 885.14 18.6Z" fill="rgb(55 65 81)"/>
</g>
<defs>
<clipPath id="clip0_8_14">
<rect width="1559" height="184" fill="white"/>
</clipPath>
</defs>
</svg>
