<svg width="456" height="236" viewBox="0 0 456 236" fill="none" xmlns="http://www.w3.org/2000/svg">
<g clip-path="url(#clip0_8_6)">
<rect width="456" height="236" fill="white"/>
<path d="M336.774 0H245.859V55.5394L270.091 60.3151L283.357 53.24L301.752 58.5463V47.0493H338.543C351.749 47.0493 362.716 48.8181 371.442 52.3556C380.403 55.6573 384.884 62.8503 384.884 73.9346C384.884 84.7831 380.403 91.9761 371.442 95.5136C362.716 98.8153 351.749 100.466 338.543 100.466H301.752V88.8807L285.126 85.9622L268.322 95.9558L245.859 98.3436V118.154V236.308H301.752V147.162H326.869L390.898 236.308H455.635L387.007 141.148C402.1 137.139 413.656 131.479 421.675 124.168C429.929 116.857 435.707 108.838 439.009 100.112C442.31 91.1506 443.961 82.1889 443.961 73.2271C443.961 53.6527 439.245 38.5592 429.811 27.9466C420.613 17.334 407.878 10.023 391.606 6.01383C375.569 2.00461 357.292 0 336.774 0Z" fill="black"/>
<path d="M0 236.308L89.4998 0H151.053L240.553 236.308H179.707L165.557 194.211H74.9959L60.8457 236.308H0ZM90.2073 148.93H150.345L119.923 59.0769L90.2073 148.93Z" fill="black"/>
</g>
<defs>
<clipPath id="clip0_8_6">
<rect width="456" height="236" fill="white"/>
</clipPath>
</defs>
</svg>
