<svg width="196" height="196" viewBox="0 0 196 196" fill="none" xmlns="http://www.w3.org/2000/svg">
<path d="M52.0179 105.431C49.8504 108.682 45.794 118.064 46.9089 129.583C47.763 138.407 56.1983 141.659 60.8428 141.659" stroke="black" stroke-width="6.50237" stroke-linecap="round"/>
<path d="M15.7912 11.6113C20.9002 30.4992 30.2822 75.1488 26.9382 102.645C22.7581 137.014 10.2178 136.085 10.2178 159.772C10.2178 178.722 27.2478 183.769 35.7628 183.924C45.5164 181.447 69.4822 176.493 87.3173 176.493C109.611 176.493 127.725 185.782 137.943 185.317C146.117 184.946 152.805 181.757 155.128 180.208C158.843 181.911 167.296 185.317 171.384 185.317C176.493 185.317 187.64 182.531 187.175 169.526C186.711 156.521 165.81 165.346 153.734 157.915C141.659 150.483 137.943 146.768 124.938 139.336C111.933 131.905 81.1024 131.441 83.1372 88.7109C84.2519 65.3023 87.3173 26.0094 88.7107 9.28906" stroke="black" stroke-width="6.50237" stroke-linecap="round"/>
<path d="M34.8333 48.3032C36.8459 57.1279 40.8712 75.2416 39.4778 91.0331M22.293 148.161C25.699 142.123 32.9754 127.632 34.8333 117.971" stroke="#29A680" stroke-width="7.43128" stroke-linecap="round"/>
<path d="M39.9426 90.5688C40.2522 95.523 39.0137 107.754 36.6914 113.792" stroke="#29A680" stroke-width="13.0047" stroke-linecap="round"/>
</svg>
