<svg width="196" height="196" viewBox="0 0 196 196" fill="none" xmlns="http://www.w3.org/2000/svg">
<path d="M52.0188 105.431C49.8514 108.682 45.795 118.064 46.9098 129.583C47.7639 138.407 56.1992 141.659 60.8438 141.659" stroke="black" stroke-width="6.50237" stroke-linecap="round"/>
<path d="M15.7922 11.6113C20.9012 30.4992 30.2832 75.1488 26.9391 102.645C22.759 137.014 10.2188 136.085 10.2188 159.772C10.2188 178.722 27.2488 183.769 35.7638 183.924C45.5173 181.447 69.4832 176.493 87.3183 176.493C109.612 176.493 127.726 185.782 137.944 185.317C146.118 184.946 152.806 181.757 155.129 180.208C158.844 181.911 167.297 185.317 171.385 185.317C176.494 185.317 187.641 182.531 187.176 169.526C186.712 156.521 165.811 165.346 153.735 157.915C141.66 150.483 137.944 146.768 124.939 139.336C111.934 131.905 81.1034 131.441 83.1382 88.7109C84.2529 65.3023 87.3183 26.0094 88.7116 9.28906" stroke="black" stroke-width="6.50237" stroke-linecap="round"/>
<path d="M34.8342 48.3032C36.8469 57.1279 40.6864 76.8208 39.9432 84.9952M22.2939 148.161C25.6999 142.123 32.9764 127.632 34.8342 117.971" stroke="#29A680" stroke-width="7.43128" stroke-linecap="round"/>
</svg>
