<svg width="512" height="512" viewBox="0 0 512 512" fill="none" xmlns="http://www.w3.org/2000/svg">
<g clip-path="url(#clip0_8_2)">
<rect width="512" height="512" fill="white"/>
<path d="M378.252 123.384H276.091V185.794L303.321 191.16L318.227 183.21L338.898 189.172V176.253H380.24C395.08 176.253 407.403 178.241 417.209 182.216C427.279 185.926 432.314 194.009 432.314 206.464C432.314 218.655 427.279 226.738 417.209 230.713C407.403 234.423 395.08 236.278 380.24 236.278H338.898V223.259L320.215 219.98L301.333 231.21L276.091 233.893V256.154V388.924H338.898V288.75H367.122L439.072 388.924H511.818L434.7 281.992C451.66 277.487 464.646 271.127 473.656 262.912C482.931 254.696 489.424 245.686 493.134 235.881C496.844 225.81 498.7 215.74 498.7 205.669C498.7 183.674 493.399 166.713 482.799 154.787C472.463 142.862 458.153 134.647 439.867 130.141C421.847 125.636 401.308 123.384 378.252 123.384Z" fill="black"/>
<path d="M-0.182434 388.924L100.389 123.384H169.557L270.128 388.924H201.755L185.855 341.62H84.0909L68.1902 388.924H-0.182434ZM101.184 290.738H168.762L134.575 189.769L101.184 290.738Z" fill="black"/>
</g>
<defs>
<clipPath id="clip0_8_2">
<rect width="512" height="512" fill="white"/>
</clipPath>
</defs>
</svg>
